<svg width="207" height="72" viewBox="0 0 207 72" fill="none" xmlns="http://www.w3.org/2000/svg">
<g clip-path="url(#clip0_126_790)">
<path d="M1.93594 18.1864L0 10.9104L33.879 1L68 11.0358L65.8221 18.0609L33.879 8.77778L1.93594 18.1864Z" fill="white"/>
<path d="M27.1032 18.5627H9.19574V45.4819H27.1032C29.3777 46.0483 31.5723 48.6739 33.294 50.7337C33.4957 50.975 33.6909 51.2086 33.879 51.4301C34.0671 51.2086 34.2623 50.9751 34.464 50.7338C36.1857 48.6739 38.3803 46.0483 40.6548 45.4819H51.3025V56.699H40.6548C35.815 57.3732 33.879 59.6098 33.879 59.6098C33.879 59.6098 31.9431 57.3732 27.1032 56.699H9.19574V65.0518H27.1032C29.3777 65.6182 31.5723 68.2438 33.294 70.3036C33.4957 70.5449 33.6909 70.7785 33.879 71C34.0671 70.7785 34.2623 70.5449 34.464 70.3036C36.1857 68.2438 38.3803 65.6182 40.6548 65.0518H58.5623V37.1291H40.6548C35.815 37.8033 33.879 40.0399 33.879 40.0399C33.879 40.0399 31.9431 37.8033 27.1032 37.1291H16.4555V26.9156H27.1032C29.3777 27.482 31.5723 30.1076 33.294 32.1674L33.2945 32.168C33.496 32.4091 33.6911 32.6424 33.879 32.8638C34.067 32.6424 34.262 32.4091 34.4636 32.168L34.464 32.1675C36.1857 30.1076 38.3803 27.482 40.6548 26.9156H58.5623V18.5627H40.6548C35.815 19.237 33.879 21.4736 33.879 21.4736C33.879 21.4736 31.9431 19.237 27.1032 18.5627Z" fill="white"/>
<path d="M87.6477 15.4205C87.5568 14.5038 87.1667 13.7917 86.4773 13.2841C85.7879 12.7765 84.8523 12.5227 83.6705 12.5227C82.8674 12.5227 82.1894 12.6364 81.6364 12.8636C81.0833 13.0833 80.6591 13.3902 80.3636 13.7841C80.0758 14.178 79.9318 14.625 79.9318 15.125C79.9167 15.5417 80.0038 15.9053 80.1932 16.2159C80.3902 16.5265 80.6591 16.7955 81 17.0227C81.3409 17.2424 81.7348 17.4356 82.1818 17.6023C82.6288 17.7614 83.1061 17.8977 83.6136 18.0114L85.7045 18.5114C86.7197 18.7386 87.6515 19.0417 88.5 19.4205C89.3485 19.7992 90.0833 20.2652 90.7045 20.8182C91.3258 21.3712 91.8068 22.0227 92.1477 22.7727C92.4962 23.5227 92.6742 24.3826 92.6818 25.3523C92.6742 26.7765 92.3106 28.0114 91.5909 29.0568C90.8788 30.0947 89.8485 30.9015 88.5 31.4773C87.1591 32.0455 85.5417 32.3295 83.6477 32.3295C81.7689 32.3295 80.1326 32.0417 78.7386 31.4659C77.3523 30.8902 76.2689 30.0379 75.4886 28.9091C74.7159 27.7727 74.3106 26.3674 74.2727 24.6932H79.0341C79.0871 25.4735 79.3106 26.125 79.7045 26.6477C80.1061 27.1629 80.6402 27.553 81.3068 27.8182C81.9811 28.0758 82.7424 28.2045 83.5909 28.2045C84.4242 28.2045 85.1477 28.0833 85.7614 27.8409C86.3826 27.5985 86.8636 27.2614 87.2045 26.8295C87.5455 26.3977 87.7159 25.9015 87.7159 25.3409C87.7159 24.8182 87.5606 24.3788 87.25 24.0227C86.947 23.6667 86.5 23.3636 85.9091 23.1136C85.3258 22.8636 84.6098 22.6364 83.7614 22.4318L81.2273 21.7955C79.2652 21.3182 77.7159 20.572 76.5795 19.5568C75.4432 18.5417 74.8788 17.1742 74.8864 15.4545C74.8788 14.0455 75.2538 12.8144 76.0114 11.7614C76.7765 10.7083 77.8258 9.88636 79.1591 9.29545C80.4924 8.70454 82.0076 8.40909 83.7045 8.40909C85.4318 8.40909 86.9394 8.70454 88.2273 9.29545C89.5227 9.88636 90.5303 10.7083 91.25 11.7614C91.9697 12.8144 92.3409 14.0341 92.3636 15.4205H87.6477ZM100.72 8.72727V32H95.7995V8.72727H100.72ZM108.588 32H103.315L111.349 8.72727H117.69L125.713 32H120.44L114.61 14.0455H114.428L108.588 32ZM108.258 22.8523H120.713V26.6932H108.258V22.8523ZM128.322 32V8.72727H137.64C139.352 8.72727 140.78 8.98106 141.924 9.48864C143.068 9.99621 143.928 10.7008 144.504 11.6023C145.079 12.4962 145.367 13.5265 145.367 14.6932C145.367 15.6023 145.185 16.4015 144.822 17.0909C144.458 17.7727 143.958 18.3333 143.322 18.7727C142.693 19.2045 141.973 19.5114 141.163 19.6932V19.9205C142.049 19.9583 142.879 20.2083 143.651 20.6705C144.432 21.1326 145.064 21.7803 145.549 22.6136C146.034 23.4394 146.276 24.4242 146.276 25.5682C146.276 26.803 145.969 27.9053 145.356 28.875C144.75 29.8371 143.852 30.5985 142.663 31.1591C141.473 31.7197 140.007 32 138.265 32H128.322ZM133.242 27.9773H137.254C138.625 27.9773 139.625 27.7159 140.254 27.1932C140.882 26.6629 141.197 25.9583 141.197 25.0795C141.197 24.4356 141.041 23.8674 140.731 23.375C140.42 22.8826 139.977 22.4962 139.401 22.2159C138.833 21.9356 138.155 21.7955 137.367 21.7955H133.242V27.9773ZM133.242 18.4659H136.89C137.564 18.4659 138.163 18.3485 138.685 18.1136C139.216 17.8712 139.632 17.5303 139.935 17.0909C140.246 16.6515 140.401 16.125 140.401 15.5114C140.401 14.6705 140.102 13.9924 139.504 13.4773C138.913 12.9621 138.072 12.7045 136.981 12.7045H133.242V18.4659ZM157.536 32H149.286V8.72727H157.604C159.945 8.72727 161.96 9.19318 163.65 10.125C165.339 11.0492 166.638 12.3788 167.547 14.1136C168.464 15.8485 168.922 17.9242 168.922 20.3409C168.922 22.7652 168.464 24.8485 167.547 26.5909C166.638 28.3333 165.331 29.6705 163.627 30.6023C161.93 31.5341 159.9 32 157.536 32ZM154.206 27.7841H157.331C158.786 27.7841 160.009 27.5265 161.002 27.0114C162.002 26.4886 162.752 25.6818 163.252 24.5909C163.759 23.4924 164.013 22.0758 164.013 20.3409C164.013 18.6212 163.759 17.2159 163.252 16.125C162.752 15.0341 162.006 14.2311 161.013 13.7159C160.021 13.2008 158.797 12.9432 157.343 12.9432H154.206V27.7841ZM180.239 32.3409C178.443 32.3409 176.898 31.9773 175.603 31.25C174.315 30.5152 173.322 29.4773 172.625 28.1364C171.928 26.7879 171.58 25.1932 171.58 23.3523C171.58 21.5568 171.928 19.9811 172.625 18.625C173.322 17.2689 174.303 16.2121 175.568 15.4545C176.841 14.697 178.334 14.3182 180.046 14.3182C181.197 14.3182 182.269 14.5038 183.262 14.875C184.262 15.2386 185.133 15.7879 185.875 16.5227C186.625 17.2576 187.209 18.1818 187.625 19.2955C188.042 20.4015 188.25 21.697 188.25 23.1818V24.5114H173.512V21.5114H183.693C183.693 20.8144 183.542 20.197 183.239 19.6591C182.936 19.1212 182.515 18.7008 181.978 18.3977C181.447 18.0871 180.83 17.9318 180.125 17.9318C179.39 17.9318 178.739 18.1023 178.171 18.4432C177.61 18.7765 177.171 19.2273 176.853 19.7955C176.534 20.3561 176.371 20.9811 176.364 21.6705V24.5227C176.364 25.3864 176.523 26.1326 176.841 26.7614C177.167 27.3902 177.625 27.875 178.216 28.2159C178.807 28.5568 179.508 28.7273 180.318 28.7273C180.856 28.7273 181.349 28.6515 181.796 28.5C182.243 28.3485 182.625 28.1212 182.943 27.8182C183.262 27.5152 183.504 27.1439 183.671 26.7045L188.148 27C187.921 28.0758 187.455 29.0152 186.75 29.8182C186.053 30.6136 185.152 31.2348 184.046 31.6818C182.947 32.1212 181.678 32.3409 180.239 32.3409ZM205.74 19.5227L201.308 19.7955C201.232 19.4167 201.07 19.0758 200.82 18.7727C200.57 18.4621 200.24 18.2159 199.831 18.0341C199.429 17.8447 198.948 17.75 198.388 17.75C197.638 17.75 197.005 17.9091 196.49 18.2273C195.975 18.5379 195.717 18.9545 195.717 19.4773C195.717 19.8939 195.884 20.2462 196.217 20.5341C196.551 20.822 197.123 21.053 197.933 21.2273L201.092 21.8636C202.789 22.2121 204.054 22.7727 204.888 23.5455C205.721 24.3182 206.138 25.3333 206.138 26.5909C206.138 27.7348 205.801 28.7386 205.126 29.6023C204.46 30.4659 203.543 31.1402 202.376 31.625C201.217 32.1023 199.88 32.3409 198.365 32.3409C196.054 32.3409 194.214 31.8598 192.842 30.8977C191.479 29.928 190.679 28.6098 190.445 26.9432L195.206 26.6932C195.35 27.3977 195.698 27.9356 196.251 28.3068C196.804 28.6705 197.513 28.8523 198.376 28.8523C199.225 28.8523 199.907 28.6894 200.422 28.3636C200.945 28.0303 201.21 27.6023 201.217 27.0795C201.21 26.6402 201.024 26.2803 200.66 26C200.297 25.7121 199.736 25.4924 198.979 25.3409L195.956 24.7386C194.251 24.3977 192.982 23.8068 192.149 22.9659C191.323 22.125 190.91 21.053 190.91 19.75C190.91 18.6288 191.214 17.6629 191.82 16.8523C192.433 16.0417 193.293 15.4167 194.399 14.9773C195.513 14.5379 196.816 14.3182 198.308 14.3182C200.513 14.3182 202.248 14.7841 203.513 15.7159C204.785 16.6477 205.528 17.9167 205.74 19.5227Z" fill="white"/>
<path d="M74.1364 44.7841V40.7273H93.25V44.7841H86.125V64H81.2614V44.7841H74.1364ZM97.3733 64H92.1006L100.135 40.7273H106.476L114.498 64H109.226L103.396 46.0455H103.214L97.3733 64ZM97.0438 54.8523H109.498V58.6932H97.0438V54.8523ZM121.721 40.7273L126.414 48.6591H126.596L131.312 40.7273H136.869L129.767 52.3636L137.028 64H131.369L126.596 56.0568H126.414L121.642 64H116.005L123.289 52.3636L116.142 40.7273H121.721ZM139.7 64V46.5455H144.54V64H139.7ZM142.131 44.2955C141.412 44.2955 140.794 44.0568 140.279 43.5795C139.772 43.0947 139.518 42.5152 139.518 41.8409C139.518 41.1742 139.772 40.6023 140.279 40.125C140.794 39.6402 141.412 39.3977 142.131 39.3977C142.851 39.3977 143.465 39.6402 143.972 40.125C144.487 40.6023 144.745 41.1742 144.745 41.8409C144.745 42.5152 144.487 43.0947 143.972 43.5795C143.465 44.0568 142.851 44.2955 142.131 44.2955ZM156.113 64.3409C154.348 64.3409 152.821 63.9659 151.533 63.2159C150.253 62.4583 149.264 61.4053 148.567 60.0568C147.87 58.7008 147.522 57.1288 147.522 55.3409C147.522 53.5379 147.87 51.9621 148.567 50.6136C149.264 49.2576 150.253 48.2045 151.533 47.4545C152.821 46.697 154.348 46.3182 156.113 46.3182C157.878 46.3182 159.401 46.697 160.681 47.4545C161.969 48.2045 162.961 49.2576 163.658 50.6136C164.355 51.9621 164.704 53.5379 164.704 55.3409C164.704 57.1288 164.355 58.7008 163.658 60.0568C162.961 61.4053 161.969 62.4583 160.681 63.2159C159.401 63.9659 157.878 64.3409 156.113 64.3409ZM156.135 60.5909C156.938 60.5909 157.609 60.3636 158.147 59.9091C158.685 59.447 159.09 58.8182 159.363 58.0227C159.643 57.2273 159.783 56.322 159.783 55.3068C159.783 54.2917 159.643 53.3864 159.363 52.5909C159.09 51.7955 158.685 51.1667 158.147 50.7045C157.609 50.2424 156.938 50.0114 156.135 50.0114C155.325 50.0114 154.643 50.2424 154.09 50.7045C153.545 51.1667 153.132 51.7955 152.851 52.5909C152.579 53.3864 152.442 54.2917 152.442 55.3068C152.442 56.322 152.579 57.2273 152.851 58.0227C153.132 58.8182 153.545 59.447 154.09 59.9091C154.643 60.3636 155.325 60.5909 156.135 60.5909ZM172.5 53.9091V64H167.659V46.5455H172.273V49.625H172.478C172.864 48.6098 173.512 47.8068 174.421 47.2159C175.33 46.6174 176.432 46.3182 177.728 46.3182C178.94 46.3182 179.996 46.5833 180.898 47.1136C181.799 47.6439 182.5 48.4015 183 49.3864C183.5 50.3636 183.75 51.5303 183.75 52.8864V64H178.909V53.75C178.917 52.6818 178.644 51.8485 178.091 51.25C177.538 50.6439 176.777 50.3409 175.807 50.3409C175.156 50.3409 174.58 50.4811 174.08 50.7614C173.587 51.0417 173.201 51.4508 172.921 51.9886C172.648 52.5189 172.508 53.1591 172.5 53.9091Z" fill="white"/>
</g>
<defs>
<clipPath id="clip0_126_790">
<rect width="207" height="72" fill="white"/>
</clipPath>
</defs>
</svg>
