<svg width="281" height="279" viewBox="0 0 281 279" fill="none" xmlns="http://www.w3.org/2000/svg">
<path d="M8 68.5L0 39.5L140 0L281 40L272 68L140 31L8 68.5Z" fill="#F8FAFC"/>
<path d="M112 70H38V177.292H112C121.399 179.55 130.468 190.014 137.583 198.224C138.416 199.186 139.223 200.117 140 201C140.777 200.117 141.584 199.186 142.417 198.224C149.532 190.015 158.601 179.55 168 177.292H212V222H168C148 224.687 140 233.602 140 233.602C140 233.602 132 224.687 112 222H38V255.292H112C121.399 257.55 130.468 268.014 137.583 276.224C138.416 277.186 139.223 278.117 140 279C140.777 278.117 141.584 277.186 142.417 276.224C149.532 268.014 158.601 257.55 168 255.292H242V144H168C148 146.687 140 155.602 140 155.602C140 155.602 132 146.687 112 144H68V103.292H112C121.399 105.55 130.468 116.014 137.583 124.224L137.584 124.226C138.417 125.187 139.223 126.118 140 127C140.777 126.118 141.583 125.187 142.416 124.226L142.417 124.225C149.532 116.015 158.601 105.55 168 103.292H242V70H168C148 72.6874 140 81.6018 140 81.6018C140 81.6018 132 72.6874 112 70Z" fill="#F8FAFC"/>
</svg>
